<svg xmlns="http://www.w3.org/2000/svg" viewBox="0 0 512.23 449.19"><defs><style>.cls-1{fill:#fefefe;}.cls-2{fill:#2c2cd1;}.cls-3{fill:#2e2ed1;}</style></defs><title>Asset 1</title><g id="Layer_2" data-name="Layer 2"><g id="Layer_1-2" data-name="Layer 1"><path class="cls-1" d="M256.93,450q-125.76,0-251.5.06c-3.13,0-4.57,0-4.56-4.13q.24-220.5,0-441c0-3.57.9-4,4.17-4q252,.13,504,0c3.57,0,4,.9,4,4.17q-.14,220.5,0,441c0,3.57-.9,4-4.17,4Q382.93,449.93,256.93,450ZM390.72,220.28v.17c9.33,0,18.66.06,28,0a75.51,75.51,0,0,0,11.46-.66c26-4.32,45.46-25.34,46.58-53.48.77-19.64.06-39.33.19-59a60.26,60.26,0,0,0-13.81-39.19c-8.22-10.27-18.86-13.76-31.54-11.55-11.41,2-19.79,8.94-27.62,16.93-13.09,13.35-16.45,13.41-30.85,1.39C309.57,21.83,215.19,13.7,143,54.15,66.52,97,27.27,183.78,39.64,264.51c14.51,94.61,93.49,171.06,196.15,175.16,39,1.56,75.62-7.8,109.61-27.09a203.46,203.46,0,0,0,42.79-32.64c5.71-5.66,5.94-13.73.79-19.29s-13.11-6-19.3-.77c-1.15,1-2.19,2-3.29,3.06-40.16,37.22-87.54,53.67-142,48.18-104.8-10.56-177.56-111-155.39-214A177.84,177.84,0,0,1,276.29,59.28c32.36,6.15,60.39,21,85.67,41.8,16.78,13.78,39.31,12.63,55-2.32,4.59-4.36,8.93-9,13.49-13.38,4-3.86,7.94-3.69,11.63.49A26.24,26.24,0,0,1,449,103.66c0,20.66.13,41.33,0,62A27.08,27.08,0,0,1,421.61,193c-20.67.17-41.33.06-62,0a26.45,26.45,0,0,1-17.42-6.48c-4.68-3.95-4.86-7.94-.56-12.34,4.54-4.65,9.32-9.06,13.72-13.84a13.46,13.46,0,0,0-19.05-19c-4.87,4.54-9.51,9.34-14,14.26a39.09,39.09,0,0,0-8.74,15.57c-3.55,12.21-2.28,23.68,7.08,32.9,9.91,9.77,21.91,15.77,36.08,16.15C368.05,220.52,379.39,220.28,390.72,220.28Zm37.41,102.81A13.65,13.65,0,1,0,414.79,337,13.55,13.55,0,0,0,428.13,323.09Z" transform="translate(-0.87 -0.9)"/><path class="cls-2" d="M390.72,220.28c-11.33,0-22.67.24-34-.06-14.17-.38-26.17-6.38-36.08-16.15-9.36-9.22-10.63-20.69-7.08-32.9a39.09,39.09,0,0,1,8.74-15.57c4.49-4.92,9.13-9.72,14-14.26a13.46,13.46,0,0,1,19.05,19c-4.4,4.78-9.18,9.19-13.72,13.84-4.3,4.4-4.12,8.39.56,12.34A26.45,26.45,0,0,0,359.61,193c20.67,0,41.33.14,62,0a27.08,27.08,0,0,0,27.33-27.33c.16-20.66.06-41.33,0-62a26.24,26.24,0,0,0-6.85-17.79c-3.69-4.18-7.63-4.35-11.63-.49-4.56,4.39-8.9,9-13.49,13.38-15.73,14.95-38.26,16.1-55,2.32-25.28-20.76-53.31-35.65-85.67-41.8A177.84,177.84,0,0,0,69,197.12c-22.17,103,50.59,203.44,155.39,214,54.48,5.49,101.86-11,142-48.18,1.1-1,2.14-2.1,3.29-3.06,6.19-5.19,14.09-4.86,19.3.77s4.92,13.63-.79,19.29a203.46,203.46,0,0,1-42.79,32.64c-34,19.29-70.6,28.65-109.61,27.09-102.66-4.1-181.64-80.55-196.15-175.16C27.27,183.78,66.52,97,143,54.15c72.16-40.45,166.54-32.32,230.1,20.71,14.4,12,17.76,12,30.85-1.39,7.83-8,16.21-14.94,27.62-16.93,12.68-2.21,23.32,1.28,31.54,11.55A60.26,60.26,0,0,1,477,107.28c-.13,19.67.58,39.36-.19,59-1.12,28.14-20.56,49.16-46.58,53.48a75.51,75.51,0,0,1-11.46.66c-9.34.09-18.67,0-28,0Z" transform="translate(-0.87 -0.9)"/><path class="cls-3" d="M428.13,323.09a13.65,13.65,0,1,1-13.69-13.51A13.56,13.56,0,0,1,428.13,323.09Z" transform="translate(-0.87 -0.9)"/></g></g></svg>